# xmcd
# 
# Track frame offsets:
#     150
#     26775
#     47925
#     54562
# 
# Disc length: 907
# 
# Revision: 0
# Processed by: cddbd v1.5.2PL0 Copyright (c) Steve Scherf et al.
# Submitted via: fre:ac v1.0.17
# 
DISCID=33038904
DTITLE=Rap IV Rap - Keep On Movin' - Rap
DYEAR=1989
DGENRE=Rap
TTITLE0=Keep On Movin' - Rap (Saturday Night Version)
TTITLE1=Keep On Movin' - Rap (Beats and Pieces)
TTITLE2=Keep On Movin' - Rap (Acapella)
TTITLE3=I Don't Know (Hurry Up - Mix)
EXTD=
EXTT0=
EXTT1=
EXTT2=
EXTT3=
PLAYORDER=
